<?xml version="1.0" encoding="UTF-8"?>
<svg width="17px" height="17px" viewBox="0 0 17 17" version="1.1" xmlns="http://www.w3.org/2000/svg" xmlns:xlink="http://www.w3.org/1999/xlink">
    <!-- Generator: Sketch 48.2 (47327) - http://www.bohemiancoding.com/sketch -->
    <title>Group 2</title>
    <desc>Created with Sketch.</desc>
    <defs>
        <polygon id="path-1" points="0 0 17 0 17 17 0 17"></polygon>
    </defs>
    <g id="Page-1" stroke="none" stroke-width="1" fill="none" fill-rule="evenodd">
        <g id="Group-2">
            <g id="Group">
                <mask id="mask-2" fill="white">
                    <use xlink:href="#path-1"></use>
                </mask>
                <g id="Clip-2"></g>
                <path d="M8.50001687,0 C6.1915386,0 5.90207625,0.00978483291 4.99546087,0.0511510576 C4.09073497,0.0924160598 3.47283965,0.23611814 2.93217702,0.446255862 C2.37322687,0.663445412 1.89920233,0.954088691 1.42662864,1.42662864 C0.954088691,1.89920233 0.663445412,2.37322687 0.446255862,2.93217702 C0.23611814,3.47283965 0.0924160598,4.09073497 0.0511510576,4.99546087 C0.00978483291,5.90207625 0,6.1915386 0,8.50001687 C0,10.8084614 0.00978483291,11.0979237 0.0511510576,12.0045391 C0.0924160598,12.909265 0.23611814,13.5271604 0.446255862,14.067823 C0.663445412,14.6267731 0.954088691,15.1007977 1.42662864,15.5733714 C1.89920233,16.0459113 2.37322687,16.3365546 2.93217702,16.5537779 C3.47283965,16.7638819 4.09073497,16.9075839 4.99546087,16.9488489 C5.90207625,16.9902152 6.1915386,17 8.50001687,17 C10.8084614,17 11.0979237,16.9902152 12.0045391,16.9488489 C12.909265,16.9075839 13.5271604,16.7638819 14.067823,16.5537779 C14.6267731,16.3365546 15.1007977,16.0459113 15.5733714,15.5733714 C16.0459113,15.1007977 16.3365546,14.6267731 16.5537779,14.067823 C16.7638819,13.5271604 16.9075839,12.909265 16.9488489,12.0045391 C16.9902152,11.0979237 17,10.8084614 17,8.50001687 C17,6.1915386 16.9902152,5.90207625 16.9488489,4.99546087 C16.9075839,4.09073497 16.7638819,3.47283965 16.5537779,2.93217702 C16.3365546,2.37322687 16.0459113,1.89920233 15.5733714,1.42662864 C15.1007977,0.954088691 14.6267731,0.663445412 14.067823,0.446255862 C13.5271604,0.23611814 12.909265,0.0924160598 12.0045391,0.0511510576 C11.0979237,0.00978483291 10.8084614,0 8.50001687,0 Z M8.50001687,1.5315288 C10.769592,1.5315288 11.0384387,1.54020018 11.9347294,1.58109404 C12.763471,1.61888374 13.2135396,1.75735599 13.5130567,1.87376176 C13.9098148,2.02795723 14.1929676,2.21214828 14.4903928,2.5096072 C14.7878517,2.80703238 14.9720428,3.0901852 15.1262382,3.4869433 C15.242644,3.78646041 15.3811163,4.23652898 15.418906,5.06527059 C15.4597998,5.96156129 15.4684712,6.23040801 15.4684712,8.50001687 C15.4684712,10.769592 15.4597998,11.0384387 15.418906,11.9347294 C15.3811163,12.763471 15.242644,13.2135396 15.1262382,13.5130567 C14.9720428,13.9098148 14.7878517,14.1929676 14.4903928,14.4903928 C14.1929676,14.7878517 13.9098148,14.9720428 13.5130567,15.1262382 C13.2135396,15.242644 12.763471,15.3811163 11.9347294,15.418906 C11.0385737,15.4597998 10.7697607,15.4684712 8.50001687,15.4684712 C6.2302393,15.4684712 5.96146006,15.4597998 5.06527059,15.418906 C4.23652898,15.3811163 3.78646041,15.242644 3.4869433,15.1262382 C3.0901852,14.9720428 2.80703238,14.7878517 2.5096072,14.4903928 C2.21218202,14.1929676 2.02795723,13.9098148 1.87376176,13.5130567 C1.75735599,13.2135396 1.61888374,12.763471 1.58109404,11.9347294 C1.54020018,11.0384387 1.5315288,10.769592 1.5315288,8.50001687 C1.5315288,6.23040801 1.54020018,5.96156129 1.58109404,5.06527059 C1.61888374,4.23652898 1.75735599,3.78646041 1.87376176,3.4869433 C2.02795723,3.0901852 2.21214828,2.80703238 2.5096072,2.5096072 C2.80703238,2.21214828 3.0901852,2.02795723 3.4869433,1.87376176 C3.78646041,1.75735599 4.23652898,1.61888374 5.06527059,1.58109404 C5.96156129,1.54020018 6.23040801,1.5315288 8.50001687,1.5315288 Z" id="Fill-1" fill="#D0D0D0" mask="url(#mask-2)"></path>
                <path d="M8.17309335,10.9318506 C6.64944119,10.9318506 5.41430326,9.69671266 5.41430326,8.17309335 C5.41430326,6.64944119 6.64944119,5.41430326 8.17309335,5.41430326 C9.69671266,5.41430326 10.9318506,6.64944119 10.9318506,8.17309335 C10.9318506,9.69671266 9.69671266,10.9318506 8.17309335,10.9318506 Z M8.17309335,3.92307692 C5.82585164,3.92307692 3.92307692,5.82585164 3.92307692,8.17309335 C3.92307692,10.5203022 5.82585164,12.4230769 8.17309335,12.4230769 C10.5203022,12.4230769 12.4230769,10.5203022 12.4230769,8.17309335 C12.4230769,5.82585164 10.5203022,3.92307692 8.17309335,3.92307692 Z" id="Fill-4" fill="#D0D0D0" mask="url(#mask-2)"></path>
                <path d="M14.3846154,4.57694471 C14.3846154,5.29916997 13.7991267,5.88461538 13.0769014,5.88461538 C12.3547194,5.88461538 11.7692308,5.29916997 11.7692308,4.57694471 C11.7692308,3.85471944 12.3547194,3.26923077 13.0769014,3.26923077 C13.7991267,3.26923077 14.3846154,3.85471944 14.3846154,4.57694471" id="Fill-5" fill="#D0D0D0" mask="url(#mask-2)"></path>
            </g>
        </g>
    </g>
</svg>