<?xml version="1.0" encoding="UTF-8"?>
<svg width="17px" height="14px" viewBox="0 0 17 14" version="1.1" xmlns="http://www.w3.org/2000/svg" xmlns:xlink="http://www.w3.org/1999/xlink">
    <!-- Generator: Sketch 48.2 (47327) - http://www.bohemiancoding.com/sketch -->
    <title>Group 2</title>
    <desc>Created with Sketch.</desc>
    <defs></defs>
    <g id="Page-1" stroke="none" stroke-width="1" fill="none" fill-rule="evenodd">
        <g id="Group-2" transform="translate(0.000000, -2.000000)" fill="#D1D1D1" fill-rule="nonzero">
            <path d="M5.34616,15.8134989 C11.76128,15.8134989 15.27008,10.4986189 15.27008,5.88957894 C15.27008,5.73861894 15.27008,5.58833894 15.25988,5.43873894 C15.9424853,4.94499832 16.5317217,4.33365693 17,3.63333894 C16.3634378,3.91540415 15.6881639,4.10038242 14.99672,4.18209894 C15.7248259,3.74620674 16.269764,3.06062389 16.53012,2.25293894 C15.8454671,2.65920856 15.0964393,2.94552712 14.31536,3.09953894 C13.2342163,1.94992705 11.5162892,1.6685555 10.1248935,2.41320129 C8.73349785,3.15784709 8.01466699,4.74332044 8.37148,6.28057894 C5.5670891,6.13998863 2.95424353,4.81539877 1.1832,2.63645894 C0.257463474,4.23013736 0.730311761,6.26892339 2.26304,7.29241894 C1.70798402,7.27596807 1.16502997,7.1262359 0.68,6.85585894 C0.68,6.87013894 0.68,6.88509894 0.68,6.90005894 C0.68045433,8.56034216 1.85079101,9.99034285 3.4782,10.3190989 C2.96471132,10.4591382 2.4259548,10.4796091 1.90332,10.3789389 C2.36024459,11.7997465 3.6696707,12.773072 5.16188,12.8010989 C3.92681983,13.7717527 2.40112047,14.2986818 0.83028,14.2970989 C0.552774427,14.2965662 0.275538764,14.279764 0,14.2467789 C1.59503245,15.270367 3.45094111,15.8133064 5.34616,15.8107789" id="Shape"></path>
        </g>
    </g>
</svg>